<svg xmlns="http://www.w3.org/2000/svg" viewBox="0 0 1200 630" width="1200" height="630">
  <rect width="1200" height="630" fill="#F7F4ED"/>
  <g transform="translate(80, 80)">
    <g transform="scale(3.2)">
      <rect x="1" y="8.5" width="9" height="9" rx="2.4" fill="#0E7C6B"/>
      <rect x="16" y="1" width="9" height="9" rx="2.4" fill="#1C1A17"/>
      <rect x="16" y="16" width="9" height="9" rx="2.4" fill="#C9A227"/>
      <path d="M10 12.2 H14 Q15 12.2 15 11.2 V6.8 Q15 5.8 16 5.8" stroke="#1C1A17" stroke-width="1.6" fill="none" stroke-linecap="round"/>
      <path d="M10 13.8 H14 Q15 13.8 15 14.8 V19.2 Q15 20.2 16 20.2" stroke="#C9A227" stroke-width="1.6" fill="none" stroke-linecap="round"/>
    </g>
    <text x="120" y="63" font-family="Inter, system-ui, sans-serif" font-weight="700" font-size="48" letter-spacing="-1.5" fill="#1C1A17">Visimer</text>
  </g>
  <text x="80" y="330" font-family="Inter, system-ui, sans-serif" font-weight="700" font-size="88" letter-spacing="-3" fill="#1C1A17">Edit Mermaid diagrams</text>
  <text x="80" y="428" font-family="Inter, system-ui, sans-serif" font-weight="700" font-size="88" letter-spacing="-3" fill="#0E7C6B">visually.</text>
  <text x="80" y="510" font-family="Inter, system-ui, sans-serif" font-weight="400" font-size="30" fill="#544F47">Click a node to rename or reshape it. Perfect for polishing AI-generated diagrams.</text>
  <g transform="translate(80, 550)">
    <rect x="0" y="0" width="13" height="13" rx="99" fill="#0E7C6B"/>
    <text x="25" y="12" font-family="Inter, system-ui, sans-serif" font-weight="500" font-size="22" fill="#6B6559">Open source · MIT · React &amp; vanilla</text>
  </g>
</svg>
